<svg width="815" height="303" viewBox="0 0 815 303" fill="none" xmlns="http://www.w3.org/2000/svg">
<path d="M343.067 56.7365H259.384V228.269H171.323V56.7365H87.64V228.269H0V57.5636C0 49.6238 1.68377 42.1802 5.0513 35.1502C8.41883 28.1201 12.8808 22.0826 18.353 16.8721C23.9095 11.7443 30.3078 7.60898 37.548 4.54885C44.7882 1.48871 52.5335 0 60.6155 0H431.212V228.269H343.151V56.7365H343.067Z" fill="#B5D411"/>
<path d="M814.996 171.533V228.269H534.144C525.809 228.269 517.896 226.698 510.487 223.472C503.078 220.33 496.596 216.029 491.124 210.57C485.567 205.112 481.19 198.826 477.99 191.548C474.791 184.27 473.107 176.495 473.107 168.307V59.962C473.107 51.7741 474.707 43.9997 477.99 36.7216C481.19 29.4434 485.567 23.0751 491.124 17.6991C496.68 12.2405 503.078 7.9398 510.487 4.79696C517.896 1.65413 525.809 0 534.144 0H814.996V56.7365H561.253V171.45H814.996V171.533ZM610.503 140.931V87.7514H797.232V140.931H610.503Z" fill="#B5D411"/>
<path d="M394.491 293.895V302.796H350.391C349.069 302.796 347.849 302.557 346.67 302.058C345.511 301.559 344.495 300.88 343.62 300.042C342.746 299.204 342.075 298.186 341.567 297.048C341.058 295.911 340.814 294.693 340.814 293.396V276.392C340.814 275.114 341.058 273.897 341.567 272.739C342.075 271.602 342.766 270.604 343.62 269.745C344.495 268.887 345.511 268.229 346.67 267.73C347.829 267.231 349.069 266.991 350.391 266.991H394.471V275.893H354.64V293.895H394.471H394.491ZM362.387 289.105V280.762H391.685V289.105H362.387Z" fill="#474747"/>
<path d="M414.842 293.895H454.673V302.796H400.996V266.991H414.822V293.895H414.842Z" fill="#474747"/>
<path d="M514.813 293.895V302.796H470.733C469.411 302.796 468.191 302.557 467.012 302.058C465.853 301.559 464.836 300.88 463.962 300.042C463.088 299.204 462.417 298.186 461.909 297.048C461.4 295.911 461.156 294.693 461.156 293.396V276.392C461.156 275.114 461.4 273.897 461.909 272.739C462.417 271.602 463.108 270.604 463.962 269.745C464.836 268.887 465.853 268.229 467.012 267.73C468.171 267.231 469.411 266.991 470.733 266.991H514.813V275.893H474.982V293.895H514.813ZM482.708 289.105V280.762H512.007V289.105H482.708Z" fill="#474747"/>
<path d="M535.197 293.895H575.027V302.796H530.947C529.626 302.796 528.406 302.557 527.227 302.058C526.068 301.559 525.051 300.88 524.177 300.042C523.303 299.204 522.632 298.186 522.123 297.048C521.615 295.911 521.371 294.693 521.371 293.396V276.392C521.371 275.114 521.615 273.897 522.123 272.739C522.632 271.602 523.323 270.604 524.177 269.745C525.051 268.887 526.068 268.229 527.227 267.73C528.386 267.231 529.626 266.991 530.947 266.991H575.027V275.893H535.197V293.895Z" fill="#474747"/>
<path d="M634.829 275.893H615.107V302.796H601.281V275.893H581.498V266.991H634.849V275.893H634.829Z" fill="#474747"/>
<path d="M681.269 275.893H655.142V302.796H641.316V266.991H684.258C685.6 266.991 686.921 267.211 688.222 267.67C689.503 268.129 690.662 268.767 691.679 269.606C692.696 270.444 693.509 271.422 694.119 272.56C694.729 273.697 695.034 274.955 695.034 276.332V280.623C695.034 281.86 694.708 283.058 694.058 284.195C693.407 285.333 692.553 286.331 691.516 287.189C690.479 288.047 689.32 288.726 688.06 289.245C686.799 289.764 685.559 290.023 684.38 290.023L694.464 302.796H679.622L663.255 281.621H681.269V275.893Z" fill="#474747"/>
<path d="M701.447 293.895H721.23V275.893H701.508V266.991H754.86V275.893H735.077V293.895H754.799V302.796H701.447V293.895Z" fill="#474747"/>
<path d="M775.17 293.895H815.001V302.796H770.921C769.599 302.796 768.379 302.557 767.2 302.058C766.041 301.559 765.025 300.88 764.15 300.042C763.276 299.184 762.605 298.186 762.097 297.048C761.589 295.911 761.324 294.693 761.324 293.396V276.392C761.324 275.114 761.568 273.897 762.097 272.739C762.605 271.602 763.296 270.604 764.15 269.745C765.025 268.887 766.041 268.229 767.2 267.73C768.359 267.231 769.599 266.991 770.921 266.991H815.001V275.893H775.17V293.895Z" fill="#474747"/>
<path d="M400.898 269.026V267.26H400.234V266.991H401.91V267.26H401.249V269.029H400.898V269.026Z" fill="#474747"/>
<path d="M402.194 269.026V266.991H402.554L403.212 268.309L403.867 266.991H404.227V269.029H403.878V267.55L403.316 268.675H403.104L402.54 267.55V269.026H402.191H402.194Z" fill="#474747"/>
<path d="M54.1581 275.942H40.9475V302.999H27.0458V275.942H13.8352V302.999H0V276.072C0 274.82 0.265807 273.646 0.79742 272.537C1.32903 271.428 2.03342 270.475 2.89729 269.654C3.77445 268.845 4.78452 268.192 5.92749 267.71C7.07046 267.227 8.29317 266.992 9.56904 266.992H68.0731V302.999H54.1714V275.942H54.1581Z" fill="#474747"/>
<path d="M128.615 294.049V302.999H84.2781C82.9623 302.999 81.713 302.751 80.5435 302.242C79.3739 301.747 78.3506 301.068 77.4867 300.207C76.6095 299.346 75.9185 298.355 75.4134 297.207C74.9084 296.059 74.6426 294.832 74.6426 293.541V276.45C74.6426 275.159 74.8951 273.933 75.4134 272.785C75.9185 271.637 76.6095 270.632 77.4867 269.784C78.3639 268.923 79.3739 268.245 80.5435 267.749C81.713 267.253 82.9623 266.992 84.2781 266.992H128.615V275.942H88.5576V294.036H128.615V294.049ZM96.3324 289.222V280.834H125.81V289.222H96.3324Z" fill="#474747"/>
<path d="M135.125 294.049H155.034V275.942H135.191V266.992H188.845V275.942H168.936V294.036H188.778V302.986H135.125V294.036V294.049Z" fill="#474747"/>
<path d="M209.243 302.999H195.342V266.992H239.811C241.087 266.992 242.297 267.227 243.453 267.71C244.596 268.192 245.606 268.832 246.483 269.654C247.36 270.462 248.051 271.428 248.583 272.537C249.114 273.646 249.38 274.82 249.38 276.072V302.999H235.532V275.942H209.243V302.999Z" fill="#474747"/>
<path d="M309.859 294.049V302.999H265.522C264.206 302.999 262.957 302.751 261.788 302.242C260.618 301.747 259.595 301.068 258.731 300.207C257.854 299.346 257.163 298.355 256.658 297.207C256.153 296.059 255.887 294.832 255.887 293.541V276.45C255.887 275.159 256.139 273.933 256.658 272.785C257.163 271.637 257.854 270.632 258.731 269.784C259.608 268.923 260.618 268.245 261.788 267.749C262.957 267.253 264.206 266.992 265.522 266.992H309.859V275.942H269.802V294.036H309.859V294.049ZM277.577 289.222V280.834H307.054V289.222H277.577Z" fill="#474747"/>
</svg>
